<svg xmlns="http://www.w3.org/2000/svg" viewBox="0 0 40.82 29.15"><defs><style>.cls-1{fill:none;stroke:#324c5e;stroke-linecap:round;stroke-linejoin:round;stroke-width:1.44px;}</style></defs><title>Ресурс 3</title><g id="Слой_2" data-name="Слой 2"><g id="Слой_1-2" data-name="Слой 1"><path class="cls-1" d="M8.31,13.26A7.59,7.59,0,1,1,.72,20.84a7.58,7.58,0,0,1,7.59-7.58Z"/><path class="cls-1" d="M32.51,13.26a7.59,7.59,0,1,1-7.58,7.58,7.58,7.58,0,0,1,7.58-7.58Z"/><polyline class="cls-1" points="32.51 20.84 29.56 9.56 28.85 2.61 24.9 2.45 22.86 0.72"/><line class="cls-1" x1="8.7" y1="4.18" x2="16.44" y2="4.18"/><line class="cls-1" x1="11.7" y1="4.18" x2="18.74" y2="18.61"/><polyline class="cls-1" points="21.2 18.86 29.56 9.56 14.51 9.56 8.31 20.84 17.93 20.84"/><path class="cls-1" d="M19.69,18.37a1.87,1.87,0,1,1-1.86,1.87,1.87,1.87,0,0,1,1.86-1.87Z"/></g></g></svg>