<svg xmlns="http://www.w3.org/2000/svg" viewBox="0 0 34.89 24.24"><defs><style>.cls-1{fill:none;stroke:#324c5e;stroke-linecap:round;stroke-linejoin:round;stroke-width:1.44px;}</style></defs><title>Ресурс 2</title><g id="Слой_2" data-name="Слой 2"><g id="Слой_1-2" data-name="Слой 1"><line class="cls-1" x1="13.73" y1="1.76" x2="13.73" y2="9.07"/><line class="cls-1" x1="1.54" y1="9.07" x2="26.88" y2="9.07"/><path class="cls-1" d="M3.24,19.4h-1A1.59,1.59,0,0,1,.72,17.83V8.63L2,2.4A2.11,2.11,0,0,1,3.83.75c14,0,9.3.09,16.4,0C22.3.69,24,8.43,26,8.87l6.31,1.39a2.52,2.52,0,0,1,1.89,2.26v5.31c0,.84-1,1.57-1.88,1.57H30.46"/><line class="cls-1" x1="21.48" y1="19.4" x2="11.67" y2="19.4"/><path class="cls-1" d="M7.44,17.93a1.55,1.55,0,1,1-1.55,1.55,1.54,1.54,0,0,1,1.55-1.55Z"/><path class="cls-1" d="M25.79,17.93a1.55,1.55,0,1,1-1.55,1.55,1.54,1.54,0,0,1,1.55-1.55Z"/><path class="cls-1" d="M25.79,15.44a4,4,0,1,1-4,4,4,4,0,0,1,4-4Z"/><path class="cls-1" d="M7.44,15.44a4,4,0,1,1-4,4,4,4,0,0,1,4-4Z"/></g></g></svg>