<svg xmlns="http://www.w3.org/2000/svg" viewBox="0 0 34.35 33.69"><defs><style>.cls-1{fill:none;stroke:#324c5e;stroke-linecap:round;stroke-linejoin:round;stroke-width:1.44px;}</style></defs><title>Ресурс 2</title><g id="Слой_2" data-name="Слой 2"><g id="Слой_1-2" data-name="Слой 1"><path class="cls-1" d="M20.79,4.26c-.35.16,0,1.14.18,1.52s.2.39.54.23.37-.22.22-.59-.6-1.32-.94-1.16Zm-4.43,1.1c-.3-.25-.92.58-1.15.9s-.22.39.08.64.35.24.59-.08.77-1.21.48-1.46Zm-4-.57c.12-.39-.8-.75-1.16-.88s-.41-.11-.53.28-.1.44.26.57,1.31.41,1.43,0ZM29.2,16.72l-5.9,6.36-9.47-6.45m18.26,8.46H2.27A1.52,1.52,0,0,0,.81,26.67v1A5.09,5.09,0,0,0,5.68,33h23a5.1,5.1,0,0,0,4.88-5.26v-1a1.53,1.53,0,0,0-1.46-1.58ZM30,25c2,0,3.56-2,3.56-4.12v-.2c0-2.11-1.61-4.12-3.56-4.12H4.37c-2,0-3.56,2-3.56,4.12v.2C.81,23,2.41,25,4.37,25M32.09,11H2.27A1.52,1.52,0,0,1,.81,9.45V8.13C.81,3.94,9,.72,17.18.72S33.55,4,33.55,8.13V9.45A1.53,1.53,0,0,1,32.09,11Zm-.21.23,1.75,4.09c-1.37,0-2.74-2.27-4.11-2.27s-2.74,2.27-4.11,2.27-2.75-2.27-4.12-2.27-2.74,2.27-4.11,2.27-2.75-2.27-4.12-2.27S10.32,15.35,9,15.35s-2.74-2.27-4.12-2.27S2.09,15.35.72,15.35l1.76-4.09"/></g></g></svg>