<svg xmlns="http://www.w3.org/2000/svg" viewBox="0 0 35.46 34.13"><defs><style>.cls-1,.cls-2{fill:none;stroke:#324c5e;stroke-width:1.44px;}.cls-1{stroke-linecap:round;stroke-linejoin:round;}.cls-2{stroke-miterlimit:22.93;}</style></defs><title>Ресурс 1</title><g id="Слой_2" data-name="Слой 2"><g id="Слой_1-2" data-name="Слой 1"><path class="cls-1" d="M32.15,11.22V33.41m-28.84,0V11.22M7.15.72H28.3L34.74,11H23.19L17.73,5.85,12.27,11H.72L7.15.72ZM14,33.41V25.3a3.67,3.67,0,0,1,3.75-3.57h0a3.66,3.66,0,0,1,3.74,3.57v8.11M7.08,15.32h3.08v4.36H7.08V15.32Zm0,8.5h3.08v5.49H7.08V23.82Zm18.22,0h3.08v5.49H25.3V23.82Zm0-8.5h3.08v4.36H25.3V15.32Z"/><path class="cls-2" d="M17.73,11.6A2.39,2.39,0,1,1,15.34,14a2.39,2.39,0,0,1,2.39-2.39Z"/><line class="cls-1" x1="1.34" y1="33.41" x2="34.12" y2="33.41"/></g></g></svg>