<svg xmlns="http://www.w3.org/2000/svg" viewBox="0 0 34.95 29.59"><defs><style>.cls-1{fill:none;stroke:#324c5e;stroke-linecap:round;stroke-linejoin:round;stroke-width:1.44px;}</style></defs><title>Ресурс 1</title><g id="Слой_2" data-name="Слой 2"><g id="Слой_1-2" data-name="Слой 1"><path class="cls-1" d="M12.3,20.87A8,8,0,0,0,15,23c-4.22-.23-8.65-2.51-12.83-3.78A2.42,2.42,0,0,1,.74,17l0-2c0-.63.51-1.42,1.08-1.46l9.58,0c9.42,0-2.87,2.87.92,7.37Z"/><line class="cls-1" x1="14.95" y1="22.96" x2="21.16" y2="23.03"/><path class="cls-1" d="M21.16,23a2.6,2.6,0,0,0,2.23-1"/><path class="cls-1" d="M23.39,22a9.8,9.8,0,0,1,2.7-3,6.77,6.77,0,0,1,8.14,1"/><path class="cls-1" d="M27.51,17.94A20.87,20.87,0,0,0,26.25,7.88L23.27,1c-.43-1-5.24.56-5.2,1.75"/><path class="cls-1" d="M28.5,3.1a3.47,3.47,0,0,1,.73.08L28.8,6.77l-.3,0C27.11,6.79,26,6,26,4.94S27.11,3.1,28.5,3.1Z"/><path class="cls-1" d="M29.59,23.29A1.55,1.55,0,1,1,28,24.84a1.55,1.55,0,0,1,1.55-1.55Z"/><path class="cls-1" d="M29.59,20.8a4,4,0,1,1-4,4,4,4,0,0,1,4-4Z"/><path class="cls-1" d="M5.48,23.29a1.55,1.55,0,1,1-1.54,1.55,1.54,1.54,0,0,1,1.54-1.55Z"/><path class="cls-1" d="M5.48,20.8a4,4,0,1,1-4,4,4,4,0,0,1,4-4Z"/></g></g></svg>