<svg xmlns="http://www.w3.org/2000/svg" xmlns:xlink="http://www.w3.org/1999/xlink" viewBox="0 0 218.1 152.94"><defs><style>.cls-1{opacity:0.79;fill:url(#Безымянный_градиент_27);}.cls-2{fill:#f7ea3a;opacity:0.46;}.cls-3{fill:#ba9a6e;}.cls-4{fill:url(#Безымянный_градиент_8);}.cls-5{fill:url(#Безымянный_градиент_70);}.cls-6{fill:url(#Безымянный_градиент_68);}.cls-7{fill:url(#Безымянный_градиент_9);}.cls-8{fill:#fff;}.cls-9{fill:url(#Безымянный_градиент_152);}.cls-10{fill:url(#Безымянный_градиент_9-2);}.cls-11{fill:url(#Безымянный_градиент_152-2);}.cls-12{fill:url(#Безымянный_градиент_9-3);}.cls-13{fill:url(#Безымянный_градиент_9-4);}.cls-14{fill:url(#Безымянный_градиент_171);}.cls-15{fill:url(#Безымянный_градиент_171-2);}.cls-16{fill:url(#Безымянный_градиент_171-3);}.cls-17{fill:url(#Безымянный_градиент_171-4);}.cls-18{fill:url(#Безымянный_градиент_152-3);}.cls-19{fill:url(#Безымянный_градиент_152-4);}.cls-20{fill:url(#Безымянный_градиент_152-5);}.cls-21{fill:url(#Безымянный_градиент_64);}.cls-22{fill:url(#Безымянный_градиент_64-2);}.cls-23{fill:url(#Безымянный_градиент_9-5);}.cls-24{fill:url(#Безымянный_градиент_171-5);}.cls-25{fill:#8c1f1c;}.cls-26{fill:#4470b4;}</style><radialGradient id="Безымянный_градиент_27" cx="404.56" cy="3360.14" r="180.36" gradientTransform="matrix(0.6, -0.01, 0, 0.15, -146.19, -376.26)" gradientUnits="userSpaceOnUse"><stop offset="0" stop-color="#975721"/><stop offset="0.09" stop-color="#985a25" stop-opacity="0.97"/><stop offset="0.18" stop-color="#9b6232" stop-opacity="0.89"/><stop offset="0.28" stop-color="#a07047" stop-opacity="0.75"/><stop offset="0.38" stop-color="#a78365" stop-opacity="0.56"/><stop offset="0.47" stop-color="#b19c8c" stop-opacity="0.31"/><stop offset="0.57" stop-color="#bcbbba" stop-opacity="0"/><stop offset="0.57" stop-color="#bcbbbb" stop-opacity="0"/><stop offset="1" stop-color="#fff" stop-opacity="0"/></radialGradient><linearGradient id="Безымянный_градиент_8" x1="91.54" y1="9.32" x2="124.24" y2="92.04" gradientUnits="userSpaceOnUse"><stop offset="0" stop-color="#ecc63d"/><stop offset="0.22" stop-color="#eac13c"/><stop offset="0.5" stop-color="#e5b23a"/><stop offset="0.8" stop-color="#dd9935"/><stop offset="1" stop-color="#d68432"/></linearGradient><linearGradient id="Безымянный_градиент_70" x1="109.3" y1="125.8" x2="109.3" y2="85.5" gradientUnits="userSpaceOnUse"><stop offset="0" stop-color="#c9a441"/><stop offset="0.22" stop-color="#dec274"/><stop offset="0.5" stop-color="#e2cf84"/><stop offset="0.78" stop-color="#dec274"/></linearGradient><linearGradient id="Безымянный_градиент_68" x1="109.47" y1="68.51" x2="109.47" y2="99.31" gradientUnits="userSpaceOnUse"><stop offset="0.22" stop-color="#dec274"/><stop offset="0.5" stop-color="#e2cf84"/><stop offset="0.78" stop-color="#dec274"/></linearGradient><linearGradient id="Безымянный_градиент_9" x1="112.83" y1="56.82" x2="68.16" y2="56.82" gradientUnits="userSpaceOnUse"><stop offset="0" stop-color="#92291d"/><stop offset="0.54" stop-color="#80301d"/><stop offset="1" stop-color="#ca4a46"/></linearGradient><linearGradient id="Безымянный_градиент_152" x1="70.9" y1="49.2" x2="106.75" y2="49.2" gradientUnits="userSpaceOnUse"><stop offset="0" stop-color="#fff"/><stop offset="1" stop-color="#e2e26d"/></linearGradient><linearGradient id="Безымянный_градиент_9-2" x1="99.27" y1="51.08" x2="149.86" y2="80.28" xlink:href="#Безымянный_градиент_9"/><linearGradient id="Безымянный_градиент_152-2" x1="107.82" y1="49.28" x2="117.88" y2="49.28" xlink:href="#Безымянный_градиент_152"/><linearGradient id="Безымянный_градиент_9-3" x1="67.13" y1="40.36" x2="80.36" y2="40.36" xlink:href="#Безымянный_градиент_9"/><linearGradient id="Безымянный_градиент_9-4" x1="95.53" y1="36.03" x2="108.67" y2="36.03" xlink:href="#Безымянный_градиент_9"/><linearGradient id="Безымянный_градиент_171" x1="126.02" y1="47.38" x2="127.96" y2="47.38" gradientUnits="userSpaceOnUse"><stop offset="0" stop-color="#ad7a24"/><stop offset="0.21" stop-color="#9d6022"/><stop offset="0.54" stop-color="#80301d"/><stop offset="0.77" stop-color="#b7892c"/><stop offset="1" stop-color="#f1e63c"/></linearGradient><linearGradient id="Безымянный_градиент_171-2" x1="134.26" y1="52.07" x2="135.73" y2="52.07" xlink:href="#Безымянный_градиент_171"/><linearGradient id="Безымянный_градиент_171-3" x1="144.32" y1="57.94" x2="145.88" y2="57.94" xlink:href="#Безымянный_градиент_171"/><linearGradient id="Безымянный_градиент_171-4" x1="140.08" y1="55.46" x2="141.57" y2="55.46" xlink:href="#Безымянный_градиент_171"/><linearGradient id="Безымянный_градиент_152-3" x1="115.35" y1="43.32" x2="126.82" y2="43.32" xlink:href="#Безымянный_градиент_152"/><linearGradient id="Безымянный_градиент_152-4" x1="127.25" y1="49.38" x2="134.91" y2="49.38" xlink:href="#Безымянный_градиент_152"/><linearGradient id="Безымянный_градиент_152-5" x1="135.12" y1="53.5" x2="140.74" y2="53.5" xlink:href="#Безымянный_градиент_152"/><linearGradient id="Безымянный_градиент_64" x1="140.98" y1="56.59" x2="145.14" y2="56.59" gradientUnits="userSpaceOnUse"><stop offset="0" stop-color="#fff"/><stop offset="1" stop-color="#f0cb70"/></linearGradient><linearGradient id="Безымянный_градиент_64-2" x1="145.13" y1="58.64" x2="148.3" y2="58.64" xlink:href="#Безымянный_градиент_64"/><linearGradient id="Безымянный_градиент_9-5" x1="122.44" y1="78.54" x2="128.58" y2="78.54" xlink:href="#Безымянный_градиент_9"/><linearGradient id="Безымянный_градиент_171-5" x1="143.82" y1="77.38" x2="146.26" y2="77.38" xlink:href="#Безымянный_градиент_171"/></defs><title>Ресурс 13</title><g id="Слой_2" data-name="Слой 2"><g id="Слой_5" data-name="Слой 5"><path class="cls-1" d="M218.1,124.06c.32,15-48.25,27.9-108.48,28.83S.31,142.42,0,127.42s48.27-27.9,108.48-28.83S217.79,109.06,218.1,124.06Z"/></g><g id="Слой_3" data-name="Слой 3"><path class="cls-2" d="M62.16,56.65a48.09,48.09,0,1,1,89.89,23.78q4.35,1.13,8.41,2.48a56.65,56.65,0,1,0-100.18.46q4-1.4,8.39-2.56A47.8,47.8,0,0,1,62.16,56.65Z"/><path class="cls-3" d="M110.25,8.56A48.09,48.09,0,0,0,68.67,80.81a163.65,163.65,0,0,1,42.39-5.35,165.06,165.06,0,0,1,41,5,48.09,48.09,0,0,0-41.8-71.87Z"/><path class="cls-4" d="M110.25,8.56A48.09,48.09,0,0,0,68.67,80.81a163.65,163.65,0,0,1,42.39-5.35,165.06,165.06,0,0,1,41,5,48.09,48.09,0,0,0-41.8-71.87Z"/></g><g id="Слой_4" data-name="Слой 4"><rect class="cls-5" x="23.97" y="85.5" width="170.67" height="40.3" rx="11.63"/><ellipse class="cls-6" cx="109.47" cy="89.91" rx="81.5" ry="15.4"/></g><g id="Слой_1-2" data-name="Слой 1"><path class="cls-7" d="M76.72,34.93s26.05-8.3,36.11-6.16c-2.59,8.53-9,35-5.32,56.46-11.58-.16-38.1-.31-39-3.2S68,46.82,76.72,34.93Z"/><path class="cls-8" d="M147.73,80.34a8,8,0,0,0,.5-3c0-3.08-1.43-5.58-3.19-5.58s-3.19,2.5-3.19,5.58a7.46,7.46,0,0,0,.88,3.83A33.33,33.33,0,0,0,147.73,80.34Z"/><path class="cls-9" d="M74.59,63.7a132,132,0,0,0,19.57,1.11c.89-.07,1.76-.15,2.58-.24,0,.05,0,.1,0,.15.82,0,1.65-.09,2.48-.15l.62-.28,0-.12.34,0c1-.49,2-1,3-1.56a8.13,8.13,0,0,1,1.62-.69c.76-4.07,1-18.6,1.92-27.63-4.27-3.08-30.38,5.38-30.38,5.38-3.87,4.84-4.55,17.92-5.47,23.51Z"/><path class="cls-10" d="M112.85,28.78l35.81,26.06s3.36,21,2,24.09a14.65,14.65,0,0,1-3.89,1.73s1.74-9.19-2.37-7.7c-2.68,1.37-1.56,8.25-1.56,8.25l-13.56,2.44s1.77-11.49-3-12.34c-5.43-1-5.49,8.53-4.42,13.56-5.79.76-15.7.31-15.7.31S105.07,32.29,112.85,28.78Z"/><polygon class="cls-11" points="113.3 31.98 117.88 49.81 109.64 66.58 107.82 61.7 113.3 31.98"/><path class="cls-12" d="M80.36,35.27l-10-.57s-3.43,5.64-3.2,9,2.49,2.07,2.49,2.07l2.54-7.35,6.18.1Z"/><path class="cls-13" d="M108.67,30.83l-10-.46s-3.37,5.67-3.11,9,2.51,2,2.51,2l2.46-7.37,6.19,0Z"/><polygon class="cls-14" points="126.02 41.6 126.82 52.64 127.96 53.15 127.25 42.48 126.02 41.6"/><polygon class="cls-15" points="134.26 47.48 134.91 56.29 135.73 56.66 135.12 48.09 134.26 47.48"/><polygon class="cls-16" points="144.32 54.66 145.14 60.9 145.88 61.23 145.24 55.31 144.32 54.66"/><polygon class="cls-17" points="140.08 51.63 140.74 58.92 141.57 59.29 140.98 52.27 140.08 51.63"/><polygon class="cls-18" points="115.35 33.99 119.87 49.5 126.82 52.64 126.02 41.6 115.35 33.99"/><polygon class="cls-19" points="127.25 42.48 127.96 53.15 134.91 56.29 134.26 47.48 127.25 42.48"/><polygon class="cls-20" points="135.12 48.09 135.73 56.66 140.74 58.92 140.08 51.63 135.12 48.09"/><polygon class="cls-21" points="140.98 52.27 141.57 59.29 145.14 60.9 144.32 54.66 140.98 52.27"/><polygon class="cls-22" points="145.13 55.1 145.78 61.03 148.3 62.17 147.67 56.91 145.13 55.1"/><path class="cls-8" d="M130.1,78.54c0,4.3-2,7.79-4.59,7.79s-4.59-3.49-4.59-7.79,2.06-7.79,4.59-7.79S130.1,74.23,130.1,78.54Z"/><path class="cls-23" d="M128.58,78.54c0,2.88-1.37,5.21-3.07,5.21s-3.07-2.33-3.07-5.21,1.38-5.21,3.07-5.21S128.58,75.66,128.58,78.54Z"/><path class="cls-24" d="M146.26,77.38c0,1.87-.54,3.4-1.22,3.4s-1.22-1.53-1.22-3.4S144.37,74,145,74,146.26,75.5,146.26,77.38Z"/><path class="cls-8" d="M75.69,71.77a2.12,2.12,0,1,1-2.12-2.12A2.12,2.12,0,0,1,75.69,71.77Z"/><path class="cls-8" d="M101.63,72.26a2.12,2.12,0,1,1-2.12-2.12A2.12,2.12,0,0,1,101.63,72.26Z"/></g><g id="Слой_2-2" data-name="Слой 2"><path class="cls-25" d="M40,106.28a8.7,8.7,0,0,1-.33,2.54,4.82,4.82,0,0,1-1,1.78,3.91,3.91,0,0,1-1.56,1.06A5.88,5.88,0,0,1,35,112a6.31,6.31,0,0,1-1.67-.23,3.34,3.34,0,0,1-.68-.25,1.76,1.76,0,0,1-.42-.25,1.06,1.06,0,0,1-.16-.19c0-.06,0-.12-.06-.2a2,2,0,0,1,0-.3c0-.11,0-.26,0-.43a1.73,1.73,0,0,1,.07-.6c.05-.13.13-.19.22-.19a.6.6,0,0,1,.28.13,4.28,4.28,0,0,0,.48.29,4.39,4.39,0,0,0,1.89.4A2.85,2.85,0,0,0,36,110a2.19,2.19,0,0,0,.83-.58,2.78,2.78,0,0,0,.56-1,4.88,4.88,0,0,0,.23-1.36H33.09a.23.23,0,0,1-.14,0,.28.28,0,0,1-.1-.15,1.31,1.31,0,0,1-.07-.27c0-.1,0-.24,0-.4s0-.29,0-.4a1.31,1.31,0,0,1,.07-.27.3.3,0,0,1,.1-.14.24.24,0,0,1,.14,0H37.6a4.37,4.37,0,0,0-.28-1.22,2.92,2.92,0,0,0-.58-.89,2.21,2.21,0,0,0-.85-.54,3.16,3.16,0,0,0-1.09-.18,3.52,3.52,0,0,0-1,.12,4.88,4.88,0,0,0-.73.28,3.69,3.69,0,0,0-.51.29.71.71,0,0,1-.28.13.18.18,0,0,1-.1,0,.32.32,0,0,1-.08-.13,2.08,2.08,0,0,1-.06-.24,3.79,3.79,0,0,1,0-.38c0-.17,0-.31,0-.43a2,2,0,0,1,0-.29.69.69,0,0,1,.07-.19.36.36,0,0,1,.12-.16,1.73,1.73,0,0,1,.32-.21,3.36,3.36,0,0,1,.62-.27,7,7,0,0,1,.85-.21,6.06,6.06,0,0,1,3.07.26,4.06,4.06,0,0,1,1.54,1.05,4.72,4.72,0,0,1,1,1.75A7.66,7.66,0,0,1,40,106.28Z"/><path class="cls-25" d="M50,111.53a.28.28,0,0,1-.05.16.34.34,0,0,1-.18.1,2.15,2.15,0,0,1-.35.07l-.57,0-.58,0a2.08,2.08,0,0,1-.36-.07.44.44,0,0,1-.21-.13.75.75,0,0,1-.1-.2L46.68,109a6.31,6.31,0,0,0-.39-.88,2.61,2.61,0,0,0-.45-.59,1.35,1.35,0,0,0-.56-.31,2.15,2.15,0,0,0-.7-.1h-.49v4.37a.21.21,0,0,1-.06.16.38.38,0,0,1-.17.11,2,2,0,0,1-.34.07l-.54,0-.54,0a2,2,0,0,1-.34-.07.5.5,0,0,1-.18-.11.21.21,0,0,1-.05-.16V101.2a.2.2,0,0,1,.05-.15.5.5,0,0,1,.18-.11,2.12,2.12,0,0,1,.34-.06l.54,0,.54,0a2.12,2.12,0,0,1,.34.06.38.38,0,0,1,.17.11.2.2,0,0,1,.06.15v4.11h.49a1.92,1.92,0,0,0,.67-.11,1.36,1.36,0,0,0,.52-.32,2.22,2.22,0,0,0,.42-.57,5.52,5.52,0,0,0,.37-.86l.73-2.18a.93.93,0,0,1,.1-.2.44.44,0,0,1,.19-.12,1.44,1.44,0,0,1,.35-.07l.58,0,.54,0a1.31,1.31,0,0,1,.34.06.28.28,0,0,1,.16.1.25.25,0,0,1,.05.16,1.76,1.76,0,0,1,0,.27c0,.1-.07.24-.13.42l-.74,1.94a7.61,7.61,0,0,1-.4.92,3.74,3.74,0,0,1-.43.64,2.39,2.39,0,0,1-.47.44,3.15,3.15,0,0,1-.55.28h0a3.91,3.91,0,0,1,.61.32,2.41,2.41,0,0,1,.51.46,3.66,3.66,0,0,1,.46.68,8.1,8.1,0,0,1,.45,1l.89,2.26a2.56,2.56,0,0,1,.16.48A1,1,0,0,1,50,111.53Z"/><path class="cls-25" d="M58.66,110.17a3.53,3.53,0,0,1,0,.36,1.7,1.7,0,0,1,0,.26.75.75,0,0,1-.07.18.66.66,0,0,1-.14.17,1.51,1.51,0,0,1-.35.25,4.47,4.47,0,0,1-.65.29,5.9,5.9,0,0,1-.88.23,6,6,0,0,1-1.07.09,5.6,5.6,0,0,1-2-.34,4,4,0,0,1-1.54-1,4.65,4.65,0,0,1-1-1.72,7.6,7.6,0,0,1-.34-2.4A7.78,7.78,0,0,1,51,104a5.25,5.25,0,0,1,1-1.81,4.5,4.5,0,0,1,1.6-1.12,5.46,5.46,0,0,1,2-.38,5,5,0,0,1,.88.08,5.55,5.55,0,0,1,.78.2,3.53,3.53,0,0,1,.65.28,2.66,2.66,0,0,1,.4.27,1.79,1.79,0,0,1,.16.19.8.8,0,0,1,.06.2,1.88,1.88,0,0,1,0,.28c0,.1,0,.23,0,.39s0,.31,0,.43a1,1,0,0,1-.06.29.4.4,0,0,1-.1.16.24.24,0,0,1-.14,0,.59.59,0,0,1-.32-.15c-.13-.1-.3-.2-.5-.33a3.65,3.65,0,0,0-.74-.32,3,3,0,0,0-1-.15,2.38,2.38,0,0,0-2,1,3.69,3.69,0,0,0-.55,1.2,6.27,6.27,0,0,0-.18,1.57,5.88,5.88,0,0,0,.2,1.67,3.22,3.22,0,0,0,.56,1.16,2.36,2.36,0,0,0,.89.68,2.87,2.87,0,0,0,1.17.22,3.15,3.15,0,0,0,1-.14,4.74,4.74,0,0,0,.74-.3l.5-.31a.62.62,0,0,1,.31-.13.29.29,0,0,1,.14,0,.26.26,0,0,1,.08.14,1.3,1.3,0,0,1,0,.28C58.65,109.81,58.66,110,58.66,110.17Z"/><path class="cls-25" d="M68.33,111.53a.22.22,0,0,1,0,.16.3.3,0,0,1-.18.1,1.77,1.77,0,0,1-.35.07l-.56,0-.59,0a2.08,2.08,0,0,1-.36-.07.37.37,0,0,1-.2-.13.42.42,0,0,1-.1-.2L65.06,109a4.6,4.6,0,0,0-.39-.88,2.33,2.33,0,0,0-.44-.59,1.41,1.41,0,0,0-.56-.31,2.19,2.19,0,0,0-.7-.1h-.5v4.37a.25.25,0,0,1,0,.16.37.37,0,0,1-.18.11,1.68,1.68,0,0,1-.33.07l-.54,0-.54,0a1.81,1.81,0,0,1-.34-.07.37.37,0,0,1-.18-.11.21.21,0,0,1-.06-.16V101.2a.2.2,0,0,1,.06-.15.37.37,0,0,1,.18-.11,1.93,1.93,0,0,1,.34-.06l.54,0,.54,0a1.8,1.8,0,0,1,.33.06.37.37,0,0,1,.18.11.25.25,0,0,1,0,.15v4.11H63a2,2,0,0,0,.67-.11,1.26,1.26,0,0,0,.51-.32,2,2,0,0,0,.43-.57,6.78,6.78,0,0,0,.36-.86l.74-2.18a.93.93,0,0,1,.1-.2A.39.39,0,0,1,66,101a1.35,1.35,0,0,1,.34-.07l.58,0,.55,0a1.22,1.22,0,0,1,.33.06.27.27,0,0,1,.17.1.25.25,0,0,1,0,.16,1,1,0,0,1,0,.27,4.33,4.33,0,0,1-.13.42l-.73,1.94a7.52,7.52,0,0,1-.41.92,3.22,3.22,0,0,1-.42.64,2.18,2.18,0,0,1-.48.44,2.84,2.84,0,0,1-.55.28h0a3.18,3.18,0,0,1,.61.32,2.23,2.23,0,0,1,.52.46,4.23,4.23,0,0,1,.46.68,10.1,10.1,0,0,1,.44,1l.9,2.26a3.66,3.66,0,0,1,.16.48A.86.86,0,0,1,68.33,111.53Z"/><path class="cls-25" d="M75.17,108.82a11.67,11.67,0,0,1-.73,1.56,4,4,0,0,1-.77,1,2.27,2.27,0,0,1-.89.5,4.21,4.21,0,0,1-1.11.14,3.4,3.4,0,0,1-.45,0l-.41-.08a2.23,2.23,0,0,1-.34-.12.63.63,0,0,1-.21-.13.45.45,0,0,1-.11-.13,1.08,1.08,0,0,1-.06-.19,2,2,0,0,1,0-.3c0-.12,0-.27,0-.45a2.25,2.25,0,0,1,.07-.69c0-.14.12-.21.22-.21a.29.29,0,0,1,.17.06l.23.12a1.69,1.69,0,0,0,.3.13,1.64,1.64,0,0,0,.41,0,1.15,1.15,0,0,0,.33,0,.71.71,0,0,0,.29-.14,1.71,1.71,0,0,0,.27-.31,4,4,0,0,0,.28-.52L69,101.69a1.36,1.36,0,0,1-.14-.42A.26.26,0,0,1,69,101a.64.64,0,0,1,.34-.12,5.55,5.55,0,0,1,.65,0,5.64,5.64,0,0,1,.63,0A1.23,1.23,0,0,1,71,101a.45.45,0,0,1,.22.16,1.63,1.63,0,0,1,.15.27l1.54,3.31.48,1.06c.15.35.29.71.44,1.07h0c.11-.38.23-.75.36-1.1s.27-.74.42-1.13l1.25-3.36A.68.68,0,0,1,76,101a.42.42,0,0,1,.21-.11,1.49,1.49,0,0,1,.37-.06h.61l.62,0a.76.76,0,0,1,.33.1.2.2,0,0,1,.09.2,1.1,1.1,0,0,1-.08.33Z"/><path class="cls-25" d="M86.91,104.23a4.3,4.3,0,0,1-.28,1.62,3.11,3.11,0,0,1-.84,1.2,3.69,3.69,0,0,1-1.34.74,6.58,6.58,0,0,1-1.88.25h-.91v3.48a.25.25,0,0,1-.06.16.37.37,0,0,1-.18.11,1.93,1.93,0,0,1-.34.06,4,4,0,0,1-.54,0,3.89,3.89,0,0,1-.53,0,1.77,1.77,0,0,1-.34-.06.37.37,0,0,1-.18-.11.3.3,0,0,1,0-.16V101.7a.77.77,0,0,1,.21-.59.73.73,0,0,1,.54-.2h2.57c.26,0,.51,0,.74,0a7,7,0,0,1,.84.13,3.56,3.56,0,0,1,1,.35,3,3,0,0,1,.86.67,3,3,0,0,1,.54.93A3.8,3.8,0,0,1,86.91,104.23Zm-2.32.16a1.91,1.91,0,0,0-.2-1,1.35,1.35,0,0,0-.5-.55,1.54,1.54,0,0,0-.62-.22,4.8,4.8,0,0,0-.67,0h-.94v3.71h1a2.3,2.3,0,0,0,.89-.15,1.47,1.47,0,0,0,.59-.4,1.74,1.74,0,0,0,.35-.61A2.77,2.77,0,0,0,84.59,104.39Z"/><path class="cls-25" d="M96.19,110.17a3.53,3.53,0,0,1,0,.36,1.7,1.7,0,0,1,0,.26.75.75,0,0,1-.07.18.66.66,0,0,1-.14.17,1.51,1.51,0,0,1-.35.25,4.47,4.47,0,0,1-.65.29,5.9,5.9,0,0,1-.88.23A6,6,0,0,1,93,112a5.6,5.6,0,0,1-2-.34,4,4,0,0,1-1.54-1,4.65,4.65,0,0,1-1-1.72,7.6,7.6,0,0,1-.34-2.4,7.78,7.78,0,0,1,.37-2.47,5.25,5.25,0,0,1,1-1.81,4.5,4.5,0,0,1,1.6-1.12,5.46,5.46,0,0,1,2-.38,5,5,0,0,1,.88.08,5.55,5.55,0,0,1,.78.2,3.53,3.53,0,0,1,.65.28,2.66,2.66,0,0,1,.4.27,1.79,1.79,0,0,1,.16.19.8.8,0,0,1,.06.2,1.88,1.88,0,0,1,0,.28c0,.1,0,.23,0,.39s0,.31,0,.43a1,1,0,0,1-.06.29.4.4,0,0,1-.1.16.24.24,0,0,1-.14,0,.59.59,0,0,1-.32-.15c-.13-.1-.3-.2-.5-.33a3.65,3.65,0,0,0-.74-.32,3,3,0,0,0-1-.15,2.38,2.38,0,0,0-2,1,3.69,3.69,0,0,0-.55,1.2,6.27,6.27,0,0,0-.18,1.57,5.88,5.88,0,0,0,.2,1.67,3.22,3.22,0,0,0,.56,1.16,2.36,2.36,0,0,0,.89.68,2.87,2.87,0,0,0,1.17.22,3.15,3.15,0,0,0,1-.14,4.74,4.74,0,0,0,.74-.3l.5-.31a.62.62,0,0,1,.31-.13.29.29,0,0,1,.14,0,.26.26,0,0,1,.08.14,1.3,1.3,0,0,1,0,.28C96.18,109.81,96.19,110,96.19,110.17Z"/><path class="cls-25" d="M106.67,111.54a.2.2,0,0,1-.06.15.39.39,0,0,1-.18.1,1.81,1.81,0,0,1-.34.07l-.54,0-.53,0a1.65,1.65,0,0,1-.34-.07.31.31,0,0,1-.17-.1.2.2,0,0,1-.05-.15v-6.4c0-.21,0-.4,0-.56h0c0,.08-.1.17-.16.27s-.13.22-.2.33-.14.24-.22.36l-.24.35-3.79,5.66-.14.16a.68.68,0,0,1-.19.11l-.28.05h-.42l-.53,0a1.56,1.56,0,0,1-.32-.07.24.24,0,0,1-.16-.11.34.34,0,0,1,0-.16V101.2a.2.2,0,0,1,.06-.15.37.37,0,0,1,.18-.11,2.12,2.12,0,0,1,.34-.06l.54,0,.54,0a1.8,1.8,0,0,1,.33.06.37.37,0,0,1,.18.11.25.25,0,0,1,0,.15V107c0,.18,0,.38,0,.58s0,.4,0,.59h0l.37-.61c.14-.23.29-.47.45-.69l3.8-5.66a.64.64,0,0,1,.13-.15.5.5,0,0,1,.18-.11l.28-.05a2.69,2.69,0,0,1,.43,0l.52,0a1.84,1.84,0,0,1,.32.06.41.41,0,0,1,.16.11.25.25,0,0,1,0,.15Z"/><path class="cls-25" d="M118,111.5a.24.24,0,0,1-.06.15.37.37,0,0,1-.18.1,1.81,1.81,0,0,1-.34.07l-.54,0-.53,0a1.81,1.81,0,0,1-.34-.07.38.38,0,0,1-.17-.1.23.23,0,0,1,0-.15v-5.76c0-.22,0-.43,0-.64s0-.4,0-.56h0a2.09,2.09,0,0,1-.16.27c-.06.11-.12.22-.19.33s-.15.23-.23.36-.16.23-.23.35l-3.8,5.66-.14.16a.49.49,0,0,1-.19.1.68.68,0,0,1-.27,0l-.43,0-.53,0a1.56,1.56,0,0,1-.32-.07c-.07,0-.13-.06-.15-.11a.28.28,0,0,1,0-.16V101.15a.2.2,0,0,1,.06-.14.4.4,0,0,1,.18-.11,1.48,1.48,0,0,1,.35-.06,4,4,0,0,1,.53,0,4.19,4.19,0,0,1,.54,0,1.22,1.22,0,0,1,.33.06.31.31,0,0,1,.18.11.19.19,0,0,1,0,.14v5.79c0,.18,0,.37,0,.58s0,.4,0,.59h0c.09-.17.21-.37.36-.61s.3-.47.45-.69l3.8-5.66a.64.64,0,0,1,.13-.15.5.5,0,0,1,.18-.11,1.06,1.06,0,0,1,.28-.06H117a3.79,3.79,0,0,1,.52,0,1.22,1.22,0,0,1,.32.06.29.29,0,0,1,.16.11.25.25,0,0,1,0,.15Z"/><path class="cls-25" d="M132.12,108.55a3.23,3.23,0,0,1-.16,1.06,2.64,2.64,0,0,1-.44.83,2.73,2.73,0,0,1-.68.63,4.07,4.07,0,0,1-.86.43,6.21,6.21,0,0,1-1,.25,8.57,8.57,0,0,1-1.19.08h-2.91a.67.67,0,0,1-.46-.17.66.66,0,0,1-.19-.53v-9.52a.67.67,0,0,1,.19-.54.66.66,0,0,1,.46-.16h2.75a7.5,7.5,0,0,1,1.7.17,3.3,3.3,0,0,1,1.17.51,2.25,2.25,0,0,1,.73.86,2.8,2.8,0,0,1,.25,1.24,2.55,2.55,0,0,1-.1.74,2.2,2.2,0,0,1-.29.64,2.31,2.31,0,0,1-.48.51,2.52,2.52,0,0,1-.65.35,2.74,2.74,0,0,1,.86.3,2.39,2.39,0,0,1,.68.54,2.33,2.33,0,0,1,.46.78A2.66,2.66,0,0,1,132.12,108.55ZM129.25,104a1.64,1.64,0,0,0-.1-.6,1.19,1.19,0,0,0-.3-.43,1.76,1.76,0,0,0-.51-.27,3,3,0,0,0-.82-.09h-1.13v2.84h1.24a2,2,0,0,0,.77-.12,1.33,1.33,0,0,0,.48-.31,1.36,1.36,0,0,0,.28-.46A1.77,1.77,0,0,0,129.25,104Zm.57,4.67a1.65,1.65,0,0,0-.13-.68,1.24,1.24,0,0,0-.37-.5,1.57,1.57,0,0,0-.62-.31,3.47,3.47,0,0,0-1-.11h-1.32v3.1H128a2.88,2.88,0,0,0,.78-.09,1.92,1.92,0,0,0,.55-.29,1.39,1.39,0,0,0,.49-1.12Z"/><path class="cls-26" d="M146.75,111a3,3,0,0,1,.13.48.3.3,0,0,1-.07.27.58.58,0,0,1-.33.11l-.65,0h-.67a2.06,2.06,0,0,1-.36-.05.37.37,0,0,1-.18-.11.6.6,0,0,1-.09-.18l-.73-2.19h-4.1l-.69,2.13a.75.75,0,0,1-.09.2.35.35,0,0,1-.18.13,1.31,1.31,0,0,1-.34.06l-.59,0a4.82,4.82,0,0,1-.61,0,.4.4,0,0,1-.3-.12.3.3,0,0,1-.06-.27A3,3,0,0,1,137,111l3.36-9.68a1.2,1.2,0,0,1,.12-.23.44.44,0,0,1,.22-.14,1.7,1.7,0,0,1,.4-.06h1.49a2.24,2.24,0,0,1,.46.06.46.46,0,0,1,.24.14,1.47,1.47,0,0,1,.12.25Zm-5-8h0l-1.54,4.64h3.1Z"/><path class="cls-26" d="M156.8,111.52a.3.3,0,0,1-.05.16.5.5,0,0,1-.18.11,2.12,2.12,0,0,1-.34.06,3.89,3.89,0,0,1-.53,0,4.22,4.22,0,0,1-.55,0,2.12,2.12,0,0,1-.34-.06.38.38,0,0,1-.17-.11.25.25,0,0,1-.06-.16v-4.41H150.5v4.41a.3.3,0,0,1-.05.16.43.43,0,0,1-.18.11,1.93,1.93,0,0,1-.34.06,4,4,0,0,1-.54,0,3.89,3.89,0,0,1-.53,0,1.77,1.77,0,0,1-.34-.06.48.48,0,0,1-.19-.11.3.3,0,0,1-.05-.16V101.21a.3.3,0,0,1,.05-.15.48.48,0,0,1,.19-.11,1.65,1.65,0,0,1,.34-.07l.53,0,.54,0a1.81,1.81,0,0,1,.34.07.43.43,0,0,1,.18.11.3.3,0,0,1,.05.15v4h4.08v-4a.24.24,0,0,1,.06-.15.38.38,0,0,1,.17-.11,2,2,0,0,1,.34-.07l.55,0,.53,0a2,2,0,0,1,.34.07.5.5,0,0,1,.18.11.3.3,0,0,1,.05.15Z"/><path class="cls-26" d="M168.13,111a4.14,4.14,0,0,1,.12.48.27.27,0,0,1-.07.27.57.57,0,0,1-.32.11l-.65,0h-.68a2.06,2.06,0,0,1-.36-.05.37.37,0,0,1-.18-.11.61.61,0,0,1-.08-.18l-.74-2.19h-4.1l-.69,2.13a.53.53,0,0,1-.09.2.31.31,0,0,1-.18.13,1.23,1.23,0,0,1-.34.06l-.59,0a4.82,4.82,0,0,1-.61,0,.42.42,0,0,1-.3-.12.3.3,0,0,1-.06-.27,3,3,0,0,1,.13-.48l3.36-9.68a1.2,1.2,0,0,1,.12-.23.44.44,0,0,1,.22-.14,1.8,1.8,0,0,1,.41-.06h1.48a2.24,2.24,0,0,1,.46.06.46.46,0,0,1,.24.14.73.73,0,0,1,.12.25Zm-5-8h0l-1.54,4.64h3.1Z"/><path class="cls-26" d="M178.16,111.54a.25.25,0,0,1,0,.15.39.39,0,0,1-.18.1,1.81,1.81,0,0,1-.34.07l-.54,0-.53,0a1.94,1.94,0,0,1-.35-.07.39.39,0,0,1-.18-.1.25.25,0,0,1-.05-.15v-8.78h-4.07v8.78a.25.25,0,0,1-.05.15.39.39,0,0,1-.18.1,2,2,0,0,1-.34.07l-.54,0-.54,0a1.81,1.81,0,0,1-.34-.07.39.39,0,0,1-.18-.1.25.25,0,0,1,0-.15v-9.93a.71.71,0,0,1,.18-.53.68.68,0,0,1,.47-.17h7.22a.64.64,0,0,1,.47.17.75.75,0,0,1,.17.53Z"/><path class="cls-26" d="M187,111c0,.16,0,.3,0,.41a1.05,1.05,0,0,1-.07.26.28.28,0,0,1-.1.15.24.24,0,0,1-.14,0h-5.49a.67.67,0,0,1-.46-.17.66.66,0,0,1-.19-.53v-9.52a.67.67,0,0,1,.19-.54.66.66,0,0,1,.46-.16h5.46a.2.2,0,0,1,.13,0,.36.36,0,0,1,.1.15.9.9,0,0,1,.06.27,2.42,2.42,0,0,1,0,.42,2.33,2.33,0,0,1,0,.4.77.77,0,0,1-.06.26.36.36,0,0,1-.1.15.21.21,0,0,1-.13.05h-3.9v2.66h3.3a.27.27,0,0,1,.14,0,.39.39,0,0,1,.1.14.9.9,0,0,1,.06.27,2.68,2.68,0,0,1,0,.8.83.83,0,0,1-.06.26.39.39,0,0,1-.1.14.25.25,0,0,1-.14,0h-3.3v3.08h3.93a.24.24,0,0,1,.14,0,.3.3,0,0,1,.1.14,1.31,1.31,0,0,1,.07.27C187,110.66,187,110.8,187,111Z"/></g></g></svg>