<svg xmlns="http://www.w3.org/2000/svg" viewBox="0 0 96.38 103"><defs><style>.cls-1{fill:none;stroke:#505050;stroke-linecap:round;stroke-linejoin:round;stroke-width:3px;}.cls-2{fill:#505050;}</style></defs><title>Ресурс 10</title><g id="Слой_2" data-name="Слой 2"><g id="Layer_1" data-name="Layer 1"><path class="cls-1" d="M92.6,62.87H70.67a5.53,5.53,0,0,0-5.53,5.52v6.66a5.53,5.53,0,0,0,5.53,5.52H92.6a2.28,2.28,0,0,0,2.28-2.28V65.15A2.28,2.28,0,0,0,92.6,62.87Z"/><path class="cls-1" d="M78.93,71.72a3.73,3.73,0,1,0-3.73,3.73A3.73,3.73,0,0,0,78.93,71.72Z"/><path class="cls-1" d="M92.73,80.57V93.72A7.79,7.79,0,0,1,85,101.5H12C7.65,101.5,1.5,98,1.5,93.72V36.25"/><path class="cls-1" d="M19,32.38H6a4.42,4.42,0,0,0-4.46,3.87A4.3,4.3,0,0,0,5.79,41H85a7.78,7.78,0,0,1,7.78,7.78V62.87"/><path class="cls-1" d="M88.43,41.8V37.24a4.85,4.85,0,0,0-4.86-4.86H79.4"/><polyline class="cls-1" points="17.97 40.72 52.87 1.5 82.46 28.31 71.82 40.74"/><line class="cls-1" x1="11.52" y1="40.72" x2="43.95" y2="4.27"/><path class="cls-2" d="M33.53,69.89v3.4h7.54a.65.65,0,0,1,.58.35,2.25,2.25,0,0,1,.22,1.17c0,1-.26,1.55-.8,1.55H33.53v5.36a.63.63,0,0,1-.4.57,4.47,4.47,0,0,1-1.57.18A4.37,4.37,0,0,1,30,82.29a.61.61,0,0,1-.39-.57V76.36H27.43c-.5,0-.75-.52-.75-1.55a2.7,2.7,0,0,1,.19-1.17.59.59,0,0,1,.54-.35h2.2v-3.4h-2.2a.59.59,0,0,1-.54-.37,2.78,2.78,0,0,1-.19-1.18,2.52,2.52,0,0,1,.2-1.15.63.63,0,0,1,.55-.35h2.18V53.74a1.63,1.63,0,0,1,.5-1.34,1.7,1.7,0,0,1,1.1-.39h6.07a14.52,14.52,0,0,1,4.08.55,9.55,9.55,0,0,1,3.31,1.66A7.78,7.78,0,0,1,46.9,57a8.78,8.78,0,0,1,.81,3.89A9.67,9.67,0,0,1,47,64.56,7.55,7.55,0,0,1,45,67.39a9.73,9.73,0,0,1-3.44,1.84,15.84,15.84,0,0,1-4.83.66Zm0-14.84V66.84H37A9.51,9.51,0,0,0,40,66.4a5.83,5.83,0,0,0,2.09-1.22,4.84,4.84,0,0,0,1.19-1.81,6.13,6.13,0,0,0,.39-2.2,6.92,6.92,0,0,0-.59-3.06,4.89,4.89,0,0,0-1.53-1.86,5.61,5.61,0,0,0-2.13-.94,11.34,11.34,0,0,0-2.38-.26Z"/></g></g></svg>