<svg xmlns="http://www.w3.org/2000/svg" viewBox="0 0 108.22 102"><defs><style>.cls-1{fill:#505050;}</style></defs><title>Ресурс 8</title><g id="Слой_2" data-name="Слой 2"><g id="Слой_2-2" data-name="Слой 2"><path class="cls-1" d="M69.8,34.46a8.41,8.41,0,0,1-1.49-.13,9,9,0,1,1,1.49.13Zm0-14.86a5.78,5.78,0,0,0-5.7,4.84h0a5.79,5.79,0,1,0,6.66-4.76A5.26,5.26,0,0,0,69.79,19.6Zm-7.32,4.57Z"/><path class="cls-1" d="M29.56,34.46a8.41,8.41,0,0,1-1.49-.13A9.07,9.07,0,1,1,38.5,26.87,9.08,9.08,0,0,1,29.56,34.46Zm0-14.86a5.78,5.78,0,0,0-5.69,4.84h0a5.8,5.8,0,0,0,4.76,6.66,5.79,5.79,0,0,0,1.9-11.42A5.36,5.36,0,0,0,29.54,19.6Zm-7.31,4.57Z"/><path class="cls-1" d="M51.93,102a5.18,5.18,0,0,1-2.59-.69,5.25,5.25,0,0,1-2.07-7L63.56,63,64,37a1.65,1.65,0,1,1,3.29,0l-.41,26.36a1.52,1.52,0,0,1-.18.73L50.18,95.82a2,2,0,0,0,2.31,2.82,2,2,0,0,0,1.2-1L70.07,66.83A1.64,1.64,0,0,1,73,68.37L56.59,99.2a5.26,5.26,0,0,1-3.18,2.59A5.4,5.4,0,0,1,51.93,102Z"/><path class="cls-1" d="M85.74,100.58a5,5,0,0,1-1.58-.26,5,5,0,0,1-3-2.77l0-.06L79,91.87a1.64,1.64,0,0,1,3.07-1.17l2.12,5.59A1.72,1.72,0,0,0,87.36,95L83.67,84.63a1.64,1.64,0,1,1,3.09-1.1l3.69,10.38a5,5,0,0,1-2.23,6A5.06,5.06,0,0,1,85.74,100.58Z"/><path class="cls-1" d="M86.5,34.46A8.41,8.41,0,0,1,85,34.33a9,9,0,1,1,1.49.13Zm0-14.86a5.78,5.78,0,0,0-5.69,4.84h0a5.79,5.79,0,1,0,6.66-4.76A5.29,5.29,0,0,0,86.48,19.6Zm-7.31,4.57Z"/><path class="cls-1" d="M68.63,102a5.18,5.18,0,0,1-2.59-.69,5.25,5.25,0,0,1-2.07-7L80.26,63l.39-26a1.64,1.64,0,1,1,3.28,0l-.4,26.36a1.64,1.64,0,0,1-.18.73L66.88,95.82a2,2,0,0,0,3.51,1.84L87,66.34a1.64,1.64,0,1,1,2.9,1.54L73.29,99.2a5.26,5.26,0,0,1-3.18,2.59A5.4,5.4,0,0,1,68.63,102Z"/><path class="cls-1" d="M76.48,60.48a1.64,1.64,0,0,1-1.6-1.28l-3.78-17a1.64,1.64,0,1,1,3.21-.71l3.77,17a1.64,1.64,0,0,1-1.24,2Z"/><path class="cls-1" d="M95.42,57.46A6.34,6.34,0,0,1,91.34,56L84,49.81a5.22,5.22,0,0,1,2.57-9.17,5.1,5.1,0,0,1,1.87.06c.57-2.21,1.84-5.52,4.63-7.34a1.63,1.63,0,0,1,1.39-.19,1.6,1.6,0,0,1,1,.95l5.89,14.57a6.38,6.38,0,0,1-5.92,8.77Zm-8.11-13.6a1.43,1.43,0,0,0-.29,0,1.89,1.89,0,0,0-1.35.87,2,2,0,0,0,.39,2.53l7.38,6.17a3.09,3.09,0,0,0,4.85-3.54l-5-12.34a12.71,12.71,0,0,0-1.93,4.84L94,44.66a1.64,1.64,0,1,1-2.13,2.5l-3.32-2.83A1.89,1.89,0,0,0,87.31,43.86Z"/><path class="cls-1" d="M102.44,100.58a5,5,0,0,1-4.59-3,.14.14,0,0,0,0-.06l-8.75-23a1.64,1.64,0,0,1,3.07-1.17l8.73,23A1.72,1.72,0,0,0,104.06,95l-11.36-32c-6.09-1.6-6.46-11.62-6.48-12.07a1.65,1.65,0,0,1,3.29-.1h0c0,.09.4,8.72,4.56,9.09a1.62,1.62,0,0,1,1.4,1.08l11.68,32.86a5,5,0,0,1-2.23,6A5.06,5.06,0,0,1,102.44,100.58Z"/><path class="cls-1" d="M99.51,63.16a1.68,1.68,0,0,1-1.4-.77,1.65,1.65,0,0,1,.53-2.27c3.5-2.18,5.56-4.81,6.13-7.81.89-4.73-2.14-8.9-2.17-8.94a.91.91,0,0,1-.11-.16l-6.43-11.3a1.64,1.64,0,1,1,2.85-1.62l6.39,11.22c.52.74,3.78,5.65,2.69,11.41-.74,3.93-3.3,7.29-7.61,10A1.62,1.62,0,0,1,99.51,63.16Z"/><path class="cls-1" d="M33.9,70.48a5,5,0,0,1-4.3-7.56l5.51-9.25-4.55-8.91a1.64,1.64,0,1,1,2.92-1.49l5,9.71a1.64,1.64,0,0,1-.05,1.59l-6,10a1.72,1.72,0,0,0,1.81,2.57,1.75,1.75,0,0,0,1.15-.81l6.95-11.79a2.75,2.75,0,0,0,.1-2.64L34.68,36.47A1.64,1.64,0,1,1,37.62,35l7.74,15.46a6,6,0,0,1-.2,5.78L38.2,68a5,5,0,0,1-3.33,2.37A5.31,5.31,0,0,1,33.9,70.48Z"/><path class="cls-1" d="M21.05,63.16a1.65,1.65,0,0,1-1.65-1.63l-.15-17.05-4.92,2.37A6,6,0,0,1,6.1,43.62L.33,28.89A4.76,4.76,0,0,1,3,22.73a4.77,4.77,0,0,1,6.11,2.63l4.4,10.74,6.86-2.88a1.64,1.64,0,1,1,1.27,3l-8.39,3.53a1.67,1.67,0,0,1-1.26,0,1.61,1.61,0,0,1-.89-.9l-5-12.28a1.47,1.47,0,0,0-2.7,0,1.41,1.41,0,0,0,0,1.12L9.16,42.42a2.73,2.73,0,0,0,3.75,1.47l7.24-3.49a1.64,1.64,0,0,1,2.36,1.46l.18,19.64a1.64,1.64,0,0,1-1.63,1.66Z"/><path class="cls-1" d="M5.28,101.89A5.27,5.27,0,0,1,.5,94.37L7.41,77.75a1.74,1.74,0,0,1,.18-.33L19.71,60.56a1.64,1.64,0,0,1,2.67,1.91l-12,16.71L3.52,95.67s0,0,0,.08a2,2,0,0,0,2.43,2.76,1.94,1.94,0,0,0,1.16-1L13.7,81.31a1.9,1.9,0,0,1,.23-.39L24.36,67.68a1.64,1.64,0,0,1,2.58,2l-10.29,13-6.56,16,0,.08A5.25,5.25,0,0,1,7,101.62,5.35,5.35,0,0,1,5.28,101.89Z"/><path class="cls-1" d="M45.05,101.89a4,4,0,0,1-.6,0,4.9,4.9,0,0,1-3.4-2L24.54,77.27a1.64,1.64,0,0,1,2.65-1.94L43.71,97.89l0,0a1.59,1.59,0,0,0,1.12.68,1.63,1.63,0,0,0,1.55-2.52L30.73,74a1.64,1.64,0,1,1,2.68-1.9L49.08,94.2l0,0a4.91,4.91,0,0,1-4.05,7.67Z"/><path class="cls-1" d="M3.63,25.9A1.64,1.64,0,0,1,2,24.26V1.64A1.64,1.64,0,0,1,2.78.24,1.63,1.63,0,0,1,4.38.18L16.65,6.49a1.64,1.64,0,0,1-.13,3L5.27,14.05V24.26A1.64,1.64,0,0,1,3.63,25.9ZM5.27,4.33v6.18L12,7.78Z"/></g></g></svg>