<svg xmlns="http://www.w3.org/2000/svg" viewBox="0 0 127.59 91.46"><defs><style>.cls-1,.cls-2{fill:none;stroke:#505050;stroke-linecap:round;stroke-linejoin:round;}.cls-1{stroke-width:3px;}.cls-2{stroke-width:2px;}.cls-3{fill:#505050;}</style></defs><title>Ресурс 9</title><g id="Слой_2" data-name="Слой 2"><g id="Layer_1" data-name="Layer 1"><path class="cls-1" d="M30.21,69.5a5.67,5.67,0,1,1-5.68,5.67,5.67,5.67,0,0,1,5.68-5.67Zm67.18,0a5.67,5.67,0,1,1-5.68,5.67,5.67,5.67,0,0,1,5.68-5.67Zm0-9.12A14.79,14.79,0,1,1,82.6,75.17,14.79,14.79,0,0,1,97.39,60.38Zm-67.18,0A14.79,14.79,0,1,1,15.42,75.17,14.79,14.79,0,0,1,30.21,60.38ZM16.07,72.45H6.73A5.29,5.29,0,0,1,1.5,67.22V7.11A5.51,5.51,0,0,1,6.73,1.6c46.75,0,71.56.34,95.31-.1,8.93-.16,24,6.82,24,39.58V67.22a5.31,5.31,0,0,1-5.23,5.23h-8.31m-30.43,0H45.47M1.5,37.77c13.57,0,114.63,0,124.2-.06M42.51,3.35c0,3.45,0,29.12,0,31.55M83.63,3.35c0,3.45,0,29.12,0,31.55"/></g><g id="Слой_2-2" data-name="Слой 2"><path class="cls-1" d="M108.78,15.37c0,3.79-2.76,7.28-6.18,7.28s-6.18-3.49-6.18-7.28S99.19,8.5,102.6,8.5,108.78,11.58,108.78,15.37Z"/><path class="cls-1" d="M90.06,35.29V33.11a10.45,10.45,0,0,1,10.45-10.46h4.18a10.45,10.45,0,0,1,10.45,10.46v2.18"/><line class="cls-2" x1="115.9" y1="13" x2="96.9" y2="13"/><path class="cls-1" d="M30.78,17.37c0,3.79-2.76,7.28-6.18,7.28s-6.18-3.49-6.18-7.28,2.77-6.87,6.18-6.87S30.78,13.58,30.78,17.37Z"/><path class="cls-1" d="M12.06,37.29V35.11A10.45,10.45,0,0,1,22.51,24.65h4.18A10.45,10.45,0,0,1,37.14,35.11v2.18"/><path class="cls-1" d="M69.78,17.37c0,3.79-2.76,7.28-6.18,7.28s-6.18-3.49-6.18-7.28,2.77-6.87,6.18-6.87S69.78,13.58,69.78,17.37Z"/><path class="cls-1" d="M51.06,37.29V35.11A10.45,10.45,0,0,1,61.51,24.65h4.18A10.45,10.45,0,0,1,76.14,35.11v2.18"/></g><g id="Слой_3" data-name="Слой 3"><path class="cls-3" d="M19,49.72a4.16,4.16,0,0,1-1.47,3.21,5.37,5.37,0,0,1-3.76,1.39A4.06,4.06,0,0,1,10.53,53a.14.14,0,0,1,0-.11s0-.24.13-.62.13-.6.14-.63a.22.22,0,0,1,.22-.12c.17,0,.25,0,.25.1s0,.11,0,.19,0,.15,0,.2a1.49,1.49,0,0,0,.54,1.08,2.63,2.63,0,0,0,1.91.68,3.81,3.81,0,0,0,2.78-1.21,4.59,4.59,0,0,0,1.35-2.75H14.33a.81.81,0,0,0-.7.39,1.79,1.79,0,0,1-.29.39h-.17c-.05,0-.07,0-.07-.07v0c.07-.2.16-.5.29-.91,0-.2.12-.51.22-.93,0-.07.08-.11.2-.11s.21,0,.21.09,0,.1,0,.18S14,49,14,49c0,.2.12.31.37.31h3.46v-.11a3.33,3.33,0,0,0-.92-2.45,3.22,3.22,0,0,0-2.42-1,2.35,2.35,0,0,0-1.38.49,5.29,5.29,0,0,0-1,1.19.12.12,0,0,1-.12.08.42.42,0,0,1-.18-.08c-.08,0-.12-.1-.12-.14a6.28,6.28,0,0,1,.21-.63l.24-.68a.53.53,0,0,1,.24-.25,5.15,5.15,0,0,1,2.4-.49,4,4,0,0,1,3.08,1.27A4.4,4.4,0,0,1,19,49.72Z"/><path class="cls-3" d="M25.4,49.34a.63.63,0,0,1-.17.45.51.51,0,0,1-.41.21.47.47,0,0,1-.39-.22c-.1-.14-.17-.22-.21-.22a1.35,1.35,0,0,0-.36.16,7.5,7.5,0,0,0-1.74,1.42,1.81,1.81,0,0,1,.43.25,2.06,2.06,0,0,1,.52.8l.26.65c.14.3.3.45.46.45a1.05,1.05,0,0,0,.69-.38,3.51,3.51,0,0,1,.4-.38.28.28,0,0,1,.17.1c.07.07.11.12.11.16a.28.28,0,0,1-.05.12c-.61.82-1.17,1.24-1.69,1.24q-.41,0-.72-.57c-.07-.12-.24-.5-.51-1.15a2.37,2.37,0,0,0-.56-.91l-.26-.13L20.61,54a.18.18,0,0,1-.18.14c-.4,0-.6-.08-.6-.25t1.44-5c0-.1.17-.15.43-.15s.37.07.37.2-.19.69-.57,2l.18,0q2.33-2.25,3.18-2.25a.47.47,0,0,1,.39.19A.64.64,0,0,1,25.4,49.34Z"/><path class="cls-3" d="M30.76,49.51a.48.48,0,0,1-.14.35.52.52,0,0,1-.35.14c-.31,0-.46-.16-.46-.49v-.15c0-.1-.1-.15-.32-.15a1.69,1.69,0,0,0-1.36.88,3.35,3.35,0,0,0-.61,2,1.39,1.39,0,0,0,.26.87,1,1,0,0,0,.82.38,1.08,1.08,0,0,0,.63-.21,2,2,0,0,1,.41-.27c.16.07.24.14.24.22a.16.16,0,0,1,0,.09,1.81,1.81,0,0,1-1.59,1A1.56,1.56,0,0,1,27,53.56a2.07,2.07,0,0,1-.45-1.35,3.57,3.57,0,0,1,.94-2.39,2.71,2.71,0,0,1,2.05-1.09,2,2,0,0,1,.8.16A.68.68,0,0,1,30.76,49.51Z"/><path class="cls-3" d="M37,49.34a.63.63,0,0,1-.17.45.51.51,0,0,1-.41.21.48.48,0,0,1-.39-.22c-.1-.14-.17-.22-.2-.22a1.24,1.24,0,0,0-.37.16,7.5,7.5,0,0,0-1.74,1.42,1.81,1.81,0,0,1,.43.25,2.06,2.06,0,0,1,.52.8l.26.65c.15.3.3.45.46.45a1.05,1.05,0,0,0,.69-.38,5,5,0,0,1,.4-.38.28.28,0,0,1,.17.1c.07.07.11.12.11.16a.28.28,0,0,1,0,.12c-.61.82-1.17,1.24-1.68,1.24-.27,0-.52-.19-.73-.57-.07-.12-.24-.5-.51-1.15a2.25,2.25,0,0,0-.56-.91,1.16,1.16,0,0,0-.26-.13L32.18,54a.18.18,0,0,1-.18.14c-.4,0-.6-.08-.6-.25,0,0,.47-1.68,1.43-5,0-.1.17-.15.44-.15s.36.07.36.2-.19.69-.57,2l.19,0c1.54-1.5,2.6-2.25,3.17-2.25a.47.47,0,0,1,.39.19A.64.64,0,0,1,37,49.34Z"/><path class="cls-3" d="M43.14,49.42A5.41,5.41,0,0,1,42.79,51a9.5,9.5,0,0,1-.65,1.52,18,18,0,0,1-2.08,3.14c-.73.86-1.28,1.29-1.67,1.29a.65.65,0,0,1-.66-.67.6.6,0,0,1,.17-.43.52.52,0,0,1,.4-.18.85.85,0,0,1,.36.11.72.72,0,0,0,.31.12.5.5,0,0,0,.27-.11,5.78,5.78,0,0,0,.58-.6,1.9,1.9,0,0,0,.44-.74,3.4,3.4,0,0,0,.07-.85,13.32,13.32,0,0,0-.15-2.13c-.22-1.26-.51-1.9-.89-1.9-.21,0-.43.17-.66.49a2.25,2.25,0,0,1-.38.49.35.35,0,0,1-.16-.07c-.07-.05-.1-.1-.1-.14a.13.13,0,0,1,0-.06,3.92,3.92,0,0,1,.57-1q.47-.6.87-.6,1,0,1.41,1.92a12.44,12.44,0,0,1,.28,2.7A6.31,6.31,0,0,0,42.32,50a4.69,4.69,0,0,0,0-.62c0-.06,0-.09,0-.08,0-.41.13-.61.4-.61S43.14,49,43.14,49.42Z"/><path class="cls-3" d="M49,50.13a3.16,3.16,0,0,1-.13.87,5.63,5.63,0,0,1-1.27,2.12,2.61,2.61,0,0,1-1.69,1,.92.92,0,0,1-.79-.4l-.62,2.12a1.35,1.35,0,0,0,0,.29c0,.21.14.34.4.37s.4.08.4.12c0,.25-.08.38-.23.38l-.34,0A5.74,5.74,0,0,0,44,57a6.23,6.23,0,0,0-.74,0l-.37,0a.11.11,0,0,1-.12-.12.65.65,0,0,1,.07-.23.28.28,0,0,1,.22-.14.75.75,0,0,0,.33-.11,1.16,1.16,0,0,0,.31-.58l1.77-6.15a7.21,7.21,0,0,0-1.22.44H44.2c-.13,0-.2-.08-.2-.24a.21.21,0,0,1,.09-.17,7.25,7.25,0,0,1,1.56-.61l.26-.87a.36.36,0,0,1,.17-.25h.48c.14,0,.21,0,.21.14a4.34,4.34,0,0,1-.21.77,6,6,0,0,1,1.28-.17,1.06,1.06,0,0,1,.9.43A1.54,1.54,0,0,1,49,50.13Zm-.94.3a1.14,1.14,0,0,0-.21-.7.73.73,0,0,0-.64-.31,5.13,5.13,0,0,0-.86.09l-.94,3.25a.75.75,0,0,0,0,.23c0,.45.17.68.52.68s.68-.28,1.12-.83A4.84,4.84,0,0,0,48,51.08,2.52,2.52,0,0,0,48.1,50.43Z"/><path class="cls-3" d="M54.43,49.51a.48.48,0,0,1-.14.35.52.52,0,0,1-.35.14c-.31,0-.46-.16-.46-.49a.25.25,0,0,1,0-.08v-.07q0-.15-.33-.15a1.69,1.69,0,0,0-1.36.88,3.35,3.35,0,0,0-.61,2,1.39,1.39,0,0,0,.26.87,1,1,0,0,0,.82.38,1.08,1.08,0,0,0,.63-.21,2,2,0,0,1,.41-.27c.16.07.24.14.24.22a.16.16,0,0,1,0,.09,1.81,1.81,0,0,1-1.59,1,1.56,1.56,0,0,1-1.26-.59,2.07,2.07,0,0,1-.45-1.35,3.61,3.61,0,0,1,.94-2.39,2.71,2.71,0,0,1,2.05-1.09,2,2,0,0,1,.8.16A.68.68,0,0,1,54.43,49.51Z"/><path class="cls-3" d="M60.61,49a.38.38,0,0,1,0,.16l-1.19,3.4a1.69,1.69,0,0,0-.11.62c0,.09,0,.13.07.13s.31-.17.6-.52a3.38,3.38,0,0,1,.46-.52s.06,0,.11.09.08.1.08.13a.27.27,0,0,1,0,.12,4.46,4.46,0,0,1-.87,1,2,2,0,0,1-1.11.6c-.23,0-.34-.11-.34-.33a3.09,3.09,0,0,1,.21-.88l.66-1.87c-.52.62-1.06,1.21-1.64,1.78-.87.86-1.48,1.3-1.82,1.3s-.35-.18-.35-.53a2.2,2.2,0,0,1,.2-.78L56.67,50a.76.76,0,0,0,.07-.27c0-.08,0-.12-.13-.12s-.25.14-.51.43a2.32,2.32,0,0,1-.43.43s-.08,0-.13-.09a.35.35,0,0,1-.07-.14s0-.06.06-.1q1.11-1.38,1.83-1.38c.26,0,.38.12.38.35a3.36,3.36,0,0,1-.31,1.11l-.91,2.16a1.42,1.42,0,0,0-.1.46c0,.09,0,.14.08.14.26,0,.84-.53,1.73-1.58a10,10,0,0,0,1.48-2.07c0-.13.09-.25.13-.38s.16-.25.26-.25a.72.72,0,0,1,.3.07Q60.61,48.88,60.61,49Z"/><path class="cls-3" d="M67.35,49a.39.39,0,0,1,0,.16l-1.2,3.4a1.93,1.93,0,0,0-.11.62c0,.09,0,.13.08.13s.3-.17.59-.52a4.19,4.19,0,0,1,.46-.52s.07,0,.12.09a.23.23,0,0,1,.07.13.27.27,0,0,1,0,.12,4,4,0,0,1-.87,1,2,2,0,0,1-1.1.6c-.23,0-.35-.11-.35-.33a3.09,3.09,0,0,1,.21-.88l.66-1.87c-.51.62-1.06,1.21-1.63,1.78-.87.86-1.48,1.3-1.83,1.3s-.35-.18-.35-.53a2.27,2.27,0,0,1,.21-.78L63.41,50a.83.83,0,0,0,.08-.27c0-.08-.05-.12-.14-.12s-.25.14-.51.43a2.32,2.32,0,0,1-.43.43s-.07,0-.12-.09a.25.25,0,0,1-.07-.14.14.14,0,0,1,.05-.1c.74-.92,1.35-1.38,1.84-1.38.25,0,.38.12.38.35a3.44,3.44,0,0,1-.32,1.11l-.9,2.16a1.23,1.23,0,0,0-.11.46c0,.09,0,.14.08.14.27,0,.85-.53,1.74-1.58a10.46,10.46,0,0,0,1.48-2.07c0-.13.08-.25.13-.38s.15-.25.26-.25a.79.79,0,0,1,.3.07C67.29,48.85,67.35,48.91,67.35,49Z"/><path class="cls-3" d="M78.24,49.74a1.36,1.36,0,0,1-.43,1,2.3,2.3,0,0,1-.9.6c.68.2,1,.56,1,1.08a1.55,1.55,0,0,1-.83,1.28,2.74,2.74,0,0,1-1.53.49c-1.27,0-1.91-.59-1.91-1.75a4,4,0,0,1,.84-2.46,2.69,2.69,0,0,1,2.2-1.21,2.26,2.26,0,0,1,1,.22A.85.85,0,0,1,78.24,49.74Zm-1,0c0-.39-.25-.58-.75-.58s-1,.52-1.48,1.54a3.83,3.83,0,0,0-.39,1.61,1.28,1.28,0,0,0,.26.82,1,1,0,0,0,.78.34,1.46,1.46,0,0,0,.9-.27,1,1,0,0,0,.38-.84.74.74,0,0,0-.32-.61,1.15,1.15,0,0,0-.67-.2l-.26,0a1.34,1.34,0,0,1-.25,0c-.24,0-.36-.09-.36-.28s.12-.28.36-.28H76a1.06,1.06,0,0,0,.81-.45A1.33,1.33,0,0,0,77.2,49.78Z"/><path class="cls-3" d="M92.14,53.88c0,.23-.06.34-.19.34l-.43,0c-.37,0-.68,0-.93,0s-.55,0-.93,0l-.45,0c-.06,0-.09,0-.09-.11a.39.39,0,0,1,.09-.28l.53-.08c.26-.08.4-.35.4-.82V50.76H87.53l-1.48,2a1.06,1.06,0,0,0-.25.62c0,.27.24.4.71.4.06,0,.09,0,.09.08,0,.23-.08.34-.22.34l-.4,0c-.34,0-.62,0-.86,0s-.51,0-.86,0l-.41,0c-.06,0-.09,0-.09-.07a.4.4,0,0,1,.1-.32.76.76,0,0,1,.3,0c.31,0,.65-.26,1-.79l5.57-7.62A.29.29,0,0,1,91,45.3c.1,0,.14.13.14.4v7.23a.94.94,0,0,0,.2.65.83.83,0,0,0,.5.2C92,53.8,92.14,53.83,92.14,53.88Zm-2-3.63V47.19L87.9,50.25Z"/><path class="cls-3" d="M99.83,53a.22.22,0,0,1-.06.13,3.53,3.53,0,0,1-.74.67,1.7,1.7,0,0,1-.89.38c-.32,0-.48-.14-.48-.4a17.7,17.7,0,0,1,.55-2.1H95.94L95.26,54a.19.19,0,0,1-.19.15c-.4,0-.6-.09-.6-.26s0,0,0-.06L95.59,50a.77.77,0,0,0,0-.26c0-.1,0-.15-.13-.15a.89.89,0,0,0-.49.27,2.2,2.2,0,0,1-.34.27s-.08,0-.14-.09a.26.26,0,0,1-.09-.14.27.27,0,0,1,0-.13,4.09,4.09,0,0,1,.74-.67,1.73,1.73,0,0,1,.89-.38c.33,0,.49.13.49.4a18.34,18.34,0,0,1-.52,2h2.27L99,48.91c0-.1.17-.15.44-.15s.36.06.36.19V49l-1.12,3.84a1,1,0,0,0,0,.27c0,.1,0,.15.13.15a.92.92,0,0,0,.49-.27,2.52,2.52,0,0,1,.33-.27.25.25,0,0,1,.15.09C99.8,52.89,99.83,52.93,99.83,53Z"/><path class="cls-3" d="M106,52.48a.16.16,0,0,1,0,.09,6.5,6.5,0,0,1-.79,1,1.69,1.69,0,0,1-1,.6c-.31,0-.47-.2-.47-.6a4.75,4.75,0,0,1,.29-1.35c-.94,1.31-1.8,2-2.58,2A.56.56,0,0,1,101,54a.76.76,0,0,1-.17-.48,4.15,4.15,0,0,1,1.34-2.85,3.79,3.79,0,0,1,2.65-1.4l.29,0c0-.11.08-.23.13-.34s.15-.22.24-.22q.48,0,.48.18s0,0,0,.07l-.79,2.1a7.67,7.67,0,0,0-.55,2c0,.15,0,.22.13.22s.36-.18.63-.53a3.07,3.07,0,0,1,.45-.52s.07,0,.12.1A.27.27,0,0,1,106,52.48Zm-1.35-2.33c0-.17-.14-.25-.42-.25a2.47,2.47,0,0,0-1.69,1,3.1,3.1,0,0,0-.92,1.94q0,.42.39.42c.34,0,.86-.44,1.58-1.32A4,4,0,0,0,104.67,50.15Z"/><path class="cls-3" d="M113.09,52.49a.19.19,0,0,1,0,.1,7.42,7.42,0,0,1-1,1,2.08,2.08,0,0,1-1.14.6c-.29,0-.43-.13-.43-.4a2.51,2.51,0,0,1,.21-.81l1-2.67a1.31,1.31,0,0,0,.1-.44c0-.23-.1-.34-.29-.34-.49,0-1.06.41-1.73,1.25a8.4,8.4,0,0,0-1.18,1.94c-.1.3-.27.73-.5,1.31-.07.12-.15.19-.25.19a.64.64,0,0,1-.31-.09c-.13-.07-.19-.15-.19-.24a.68.68,0,0,1,0-.14l1-2.43a4.86,4.86,0,0,0,.41-1.43c0-.17-.06-.26-.17-.26s-.39.16-.59.48a2.05,2.05,0,0,1-.36.47.38.38,0,0,1-.19-.06c-.07,0-.11-.1-.11-.14a.19.19,0,0,1,0-.07,4.44,4.44,0,0,1,.64-.93c.34-.4.64-.59.87-.59s.55.25.55.75a4.79,4.79,0,0,1-.15,1c.94-1.19,1.83-1.79,2.66-1.79.55,0,.83.26.83.78a1.67,1.67,0,0,1-.14.57l-1,2.64a1.32,1.32,0,0,0-.11.45c0,.08,0,.12.08.12s.39-.17.71-.52.51-.51.56-.51a.39.39,0,0,1,.23.23Z"/><path class="cls-3" d="M118.58,49.71a1.61,1.61,0,0,1-1.18,1.47,8,8,0,0,1-2,.45,5.6,5.6,0,0,0-.05.69,1,1,0,0,0,1.12,1.14,1.18,1.18,0,0,0,.78-.38,2.33,2.33,0,0,0,.39-.38s.08,0,.15.1.1.12.1.15a.12.12,0,0,1,0,.09,2.34,2.34,0,0,1-1.89,1.11,1.45,1.45,0,0,1-1.14-.5,1.75,1.75,0,0,1-.41-1.18,4,4,0,0,1,.91-2.61,2.7,2.7,0,0,1,2.13-1.13,1.23,1.23,0,0,1,.8.25A.86.86,0,0,1,118.58,49.71Zm-.82.07c0-.38-.16-.57-.47-.57a1.49,1.49,0,0,0-1.14.71,3.83,3.83,0,0,0-.66,1.25C117,51,117.76,50.53,117.76,49.78Z"/></g></g></svg>