<svg xmlns="http://www.w3.org/2000/svg" viewBox="0 0 83.17 103"><defs><style>.cls-1,.cls-2{fill:none;stroke:#505050;stroke-linecap:round;stroke-linejoin:round;stroke-width:3px;}.cls-2{stroke-dasharray:0.78 4.67;}</style></defs><title>Ресурс 7</title><g id="Слой_2" data-name="Слой 2"><g id="Слой_2-2" data-name="Слой 2"><path class="cls-1" d="M1.5,91.71a9.79,9.79,0,0,0,9.79,9.79h5.87V81.92"/><path class="cls-1" d="M71.88,28.7H11.29A9.78,9.78,0,0,0,1.5,38.48V91.71a9.79,9.79,0,0,1,9.79-9.79H71.88a9.79,9.79,0,0,0,9.79-9.79V18.91A9.8,9.8,0,0,1,71.88,28.7Z"/><path class="cls-1" d="M81.67,18.91a9.79,9.79,0,0,0-9.79-9.79H66V28.7"/><line class="cls-1" x1="40.53" y1="97.66" x2="52.7" y2="97.66"/><line class="cls-1" x1="40.53" y1="90.73" x2="60.93" y2="90.73"/><line class="cls-1" x1="33.33" y1="97.66" x2="34.87" y2="97.66"/><line class="cls-1" x1="33.33" y1="90.73" x2="34.87" y2="90.73"/><path class="cls-1" d="M47.77,8.37c0,3.79-2.77,7.28-6.19,7.28S35.4,12.16,35.4,8.37,38.17,1.5,41.58,1.5,47.77,4.58,47.77,8.37Z"/><path class="cls-1" d="M29,28.29V26.11A10.46,10.46,0,0,1,39.5,15.65h4.17A10.45,10.45,0,0,1,54.12,26.11v2.18"/><line class="cls-1" x1="34.51" y1="25.1" x2="34.51" y2="28.29"/><line class="cls-1" x1="48.66" y1="25.1" x2="48.66" y2="28.29"/><path class="cls-1" d="M60,55.44h2.2a5.27,5.27,0,0,1,5.26,5.26h0A5.27,5.27,0,0,1,62.19,66H46.84a5.26,5.26,0,0,0-5.26,5.26V75"/><line class="cls-1" x1="41.58" y1="35.57" x2="41.58" y2="36.07"/><path class="cls-2" d="M41,41.81a5.26,5.26,0,0,1-4.66,2.82h-14a5.26,5.26,0,0,0-5.27,5.26v.29a5.26,5.26,0,0,0,5.27,5.26h15"/><line class="cls-1" x1="40.27" y1="55.44" x2="40.77" y2="55.44"/><path class="cls-1" d="M54.74,55.31a4.25,4.25,0,1,0-4.25,4.25A4.25,4.25,0,0,0,54.74,55.31Z"/></g></g></svg>